<svg xmlns="http://www.w3.org/2000/svg" viewBox="0 0 732.42 324.15"><defs><style>.cls-1,.cls-3{fill:#fff;}.cls-1{stroke:#f7931e;opacity:0.5;}.cls-1,.cls-2,.cls-3{stroke-miterlimit:10;}.cls-2{fill:#686673;stroke:#686673;}.cls-3{stroke:#000;stroke-width:0.75px;}</style></defs><g id="레이어_2" data-name="레이어 2"><g id="Layer_1" data-name="Layer 1"><rect class="cls-1" x="0.5" y="0.5" width="206.93" height="323.15"/><rect class="cls-1" x="26.01" y="27.43" width="155.91" height="269.29" rx="5.67" transform="translate(21.96 -12.14) rotate(7.47)"/><circle class="cls-2" cx="14.67" cy="14.67" r="2.83"/><circle class="cls-2" cx="193.26" cy="14.67" r="2.83"/><circle class="cls-2" cx="14.67" cy="309.48" r="2.83"/><rect class="cls-1" x="40.19" y="48.69" width="127.56" height="226.77" rx="4.73" transform="matrix(0.99, 0.13, -0.13, 0.99, 21.96, -12.14)"/><rect class="cls-3" x="417.24" y="96.88" width="127.56" height="226.77" rx="5.67"/><circle class="cls-3" cx="451.82" cy="215.51" r="3.12"/><circle class="cls-3" cx="451.82" cy="222.88" r="3.12"/><circle class="cls-3" cx="444.45" cy="215.51" r="3.12"/><circle class="cls-3" cx="444.45" cy="222.88" r="3.12"/><circle class="cls-3" cx="437.08" cy="215.51" r="3.12"/><circle class="cls-3" cx="437.08" cy="222.88" r="3.12"/><circle class="cls-3" cx="451.82" cy="251.26" r="3.12"/><circle class="cls-3" cx="451.82" cy="258.63" r="3.12"/><circle class="cls-3" cx="444.45" cy="251.26" r="3.12"/><circle class="cls-3" cx="444.45" cy="258.63" r="3.12"/><circle class="cls-3" cx="437.08" cy="251.26" r="3.12"/><circle class="cls-3" cx="437.08" cy="258.63" r="3.12"/><circle class="cls-3" cx="451.82" cy="144.03" r="3.12"/><circle class="cls-3" cx="451.82" cy="151.4" r="3.12"/><circle class="cls-3" cx="444.45" cy="144.03" r="3.12"/><circle class="cls-3" cx="444.45" cy="151.4" r="3.12"/><circle class="cls-3" cx="437.08" cy="144.03" r="3.12"/><circle class="cls-3" cx="437.08" cy="151.4" r="3.12"/><circle class="cls-3" cx="451.82" cy="126.16" r="3.12"/><circle class="cls-3" cx="451.82" cy="133.53" r="3.12"/><circle class="cls-3" cx="444.45" cy="126.16" r="3.12"/><circle class="cls-3" cx="444.45" cy="133.53" r="3.12"/><circle class="cls-3" cx="437.08" cy="126.16" r="3.12"/><circle class="cls-3" cx="437.08" cy="133.53" r="3.12"/><circle class="cls-3" cx="451.82" cy="233.39" r="3.12"/><circle class="cls-3" cx="451.82" cy="240.76" r="3.12"/><circle class="cls-3" cx="444.45" cy="233.39" r="3.12"/><circle class="cls-3" cx="444.45" cy="240.76" r="3.12"/><circle class="cls-3" cx="437.08" cy="233.39" r="3.12"/><circle class="cls-3" cx="437.08" cy="240.76" r="3.12"/><circle class="cls-3" cx="451.82" cy="179.77" r="3.12"/><circle class="cls-3" cx="451.82" cy="187.14" r="3.12"/><circle class="cls-3" cx="444.45" cy="179.77" r="3.12"/><circle class="cls-3" cx="444.45" cy="187.14" r="3.12"/><circle class="cls-3" cx="437.08" cy="179.77" r="3.12"/><circle class="cls-3" cx="437.08" cy="187.14" r="3.12"/><circle class="cls-3" cx="451.82" cy="304.87" r="3.12"/><circle class="cls-3" cx="451.82" cy="312.24" r="3.12"/><circle class="cls-3" cx="444.45" cy="304.87" r="3.12"/><circle class="cls-3" cx="444.45" cy="312.24" r="3.12"/><circle class="cls-3" cx="437.08" cy="304.87" r="3.12"/><circle class="cls-3" cx="437.08" cy="312.24" r="3.12"/><circle class="cls-3" cx="451.82" cy="161.9" r="3.12"/><circle class="cls-3" cx="451.82" cy="169.27" r="3.12"/><circle class="cls-3" cx="444.45" cy="161.9" r="3.12"/><circle class="cls-3" cx="444.45" cy="169.27" r="3.12"/><circle class="cls-3" cx="437.08" cy="161.9" r="3.12"/><circle class="cls-3" cx="437.08" cy="169.27" r="3.12"/><circle class="cls-3" cx="451.82" cy="108.29" r="3.12"/><circle class="cls-3" cx="451.82" cy="115.66" r="3.12"/><circle class="cls-3" cx="444.45" cy="108.29" r="3.12"/><circle class="cls-3" cx="444.45" cy="115.66" r="3.12"/><circle class="cls-3" cx="437.08" cy="108.29" r="3.12"/><circle class="cls-3" cx="437.08" cy="115.66" r="3.12"/><circle class="cls-3" cx="451.82" cy="197.64" r="3.12"/><circle class="cls-3" cx="451.82" cy="205.01" r="3.12"/><circle class="cls-3" cx="444.45" cy="197.64" r="3.12"/><circle class="cls-3" cx="444.45" cy="205.01" r="3.12"/><circle class="cls-3" cx="437.08" cy="197.64" r="3.12"/><circle class="cls-3" cx="437.08" cy="205.01" r="3.12"/><circle class="cls-3" cx="451.82" cy="287" r="3.12"/><circle class="cls-3" cx="451.82" cy="294.37" r="3.12"/><circle class="cls-3" cx="444.45" cy="287" r="3.12"/><circle class="cls-3" cx="444.45" cy="294.37" r="3.12"/><circle class="cls-3" cx="437.08" cy="287" r="3.12"/><circle class="cls-3" cx="437.08" cy="294.37" r="3.12"/><circle class="cls-3" cx="451.82" cy="269.13" r="3.12"/><circle class="cls-3" cx="451.82" cy="276.5" r="3.12"/><circle class="cls-3" cx="444.45" cy="269.13" r="3.12"/><circle class="cls-3" cx="444.45" cy="276.5" r="3.12"/><circle class="cls-3" cx="437.08" cy="269.13" r="3.12"/><circle class="cls-3" cx="437.08" cy="276.5" r="3.12"/><circle class="cls-3" cx="482.94" cy="215.51" r="3.12"/><circle class="cls-3" cx="482.94" cy="222.88" r="3.12"/><circle class="cls-3" cx="475.57" cy="215.51" r="3.12"/><circle class="cls-3" cx="475.57" cy="222.88" r="3.12"/><circle class="cls-3" cx="468.2" cy="215.51" r="3.12"/><circle class="cls-3" cx="468.2" cy="222.88" r="3.12"/><circle class="cls-3" cx="482.94" cy="251.26" r="3.12"/><circle class="cls-3" cx="482.94" cy="258.63" r="3.12"/><circle class="cls-3" cx="475.57" cy="251.26" r="3.12"/><circle class="cls-3" cx="475.57" cy="258.63" r="3.12"/><circle class="cls-3" cx="468.2" cy="251.26" r="3.12"/><circle class="cls-3" cx="468.2" cy="258.63" r="3.12"/><circle class="cls-3" cx="482.94" cy="144.03" r="3.12"/><circle class="cls-3" cx="482.94" cy="151.4" r="3.12"/><circle class="cls-3" cx="475.57" cy="144.03" r="3.12"/><circle class="cls-3" cx="475.57" cy="151.4" r="3.12"/><circle class="cls-3" cx="468.2" cy="144.03" r="3.12"/><circle class="cls-3" cx="468.2" cy="151.4" r="3.12"/><circle class="cls-3" cx="482.94" cy="126.16" r="3.12"/><circle class="cls-3" cx="482.94" cy="133.53" r="3.12"/><circle class="cls-3" cx="475.57" cy="126.16" r="3.12"/><circle class="cls-3" cx="475.57" cy="133.53" r="3.12"/><circle class="cls-3" cx="468.2" cy="126.16" r="3.12"/><circle class="cls-3" cx="468.2" cy="133.53" r="3.12"/><circle class="cls-3" cx="482.94" cy="233.39" r="3.12"/><circle class="cls-3" cx="482.94" cy="240.76" r="3.12"/><circle class="cls-3" cx="475.57" cy="233.39" r="3.12"/><circle class="cls-3" cx="475.57" cy="240.76" r="3.12"/><circle class="cls-3" cx="468.2" cy="233.39" r="3.12"/><circle class="cls-3" cx="468.2" cy="240.76" r="3.12"/><circle class="cls-3" cx="482.94" cy="179.77" r="3.12"/><circle class="cls-3" cx="482.94" cy="187.14" r="3.12"/><circle class="cls-3" cx="475.57" cy="179.77" r="3.12"/><circle class="cls-3" cx="475.57" cy="187.14" r="3.12"/><circle class="cls-3" cx="468.2" cy="179.77" r="3.12"/><circle class="cls-3" cx="468.2" cy="187.14" r="3.12"/><circle class="cls-3" cx="482.94" cy="304.87" r="3.12"/><circle class="cls-3" cx="482.94" cy="312.24" r="3.12"/><circle class="cls-3" cx="475.57" cy="304.87" r="3.12"/><circle class="cls-3" cx="475.57" cy="312.24" r="3.12"/><circle class="cls-3" cx="468.2" cy="304.87" r="3.12"/><circle class="cls-3" cx="468.2" cy="312.24" r="3.12"/><circle class="cls-3" cx="482.94" cy="161.9" r="3.12"/><circle class="cls-3" cx="482.94" cy="169.27" r="3.12"/><circle class="cls-3" cx="475.57" cy="161.9" r="3.12"/><circle class="cls-3" cx="475.57" cy="169.27" r="3.12"/><circle class="cls-3" cx="468.2" cy="161.9" r="3.12"/><circle class="cls-3" cx="468.2" cy="169.27" r="3.12"/><circle class="cls-3" cx="482.94" cy="108.29" r="3.12"/><circle class="cls-3" cx="482.94" cy="115.66" r="3.12"/><circle class="cls-3" cx="475.57" cy="108.29" r="3.12"/><circle class="cls-3" cx="475.57" cy="115.66" r="3.12"/><circle class="cls-3" cx="468.2" cy="108.29" r="3.12"/><circle class="cls-3" cx="468.2" cy="115.66" r="3.12"/><circle class="cls-3" cx="482.94" cy="197.64" r="3.12"/><circle class="cls-3" cx="482.94" cy="205.01" r="3.12"/><circle class="cls-3" cx="475.57" cy="197.64" r="3.12"/><circle class="cls-3" cx="475.57" cy="205.01" r="3.12"/><circle class="cls-3" cx="468.2" cy="197.64" r="3.12"/><circle class="cls-3" cx="468.2" cy="205.01" r="3.12"/><circle class="cls-3" cx="482.94" cy="287" r="3.12"/><circle class="cls-3" cx="482.94" cy="294.37" r="3.12"/><circle class="cls-3" cx="475.57" cy="287" r="3.12"/><circle class="cls-3" cx="475.57" cy="294.37" r="3.12"/><circle class="cls-3" cx="468.2" cy="287" r="3.12"/><circle class="cls-3" cx="468.2" cy="294.37" r="3.12"/><circle class="cls-3" cx="482.94" cy="269.13" r="3.12"/><circle class="cls-3" cx="482.94" cy="276.5" r="3.12"/><circle class="cls-3" cx="475.57" cy="269.13" r="3.12"/><circle class="cls-3" cx="475.57" cy="276.5" r="3.12"/><circle class="cls-3" cx="468.2" cy="269.13" r="3.12"/><circle class="cls-3" cx="468.2" cy="276.5" r="3.12"/><circle class="cls-3" cx="514.05" cy="215.51" r="3.12"/><circle class="cls-3" cx="514.05" cy="222.88" r="3.12"/><circle class="cls-3" cx="506.68" cy="215.51" r="3.12"/><circle class="cls-3" cx="506.68" cy="222.88" r="3.12"/><circle class="cls-3" cx="499.31" cy="215.51" r="3.12"/><circle class="cls-3" cx="499.31" cy="222.88" r="3.12"/><circle class="cls-3" cx="514.05" cy="251.26" r="3.12"/><circle class="cls-3" cx="514.05" cy="258.63" r="3.12"/><circle class="cls-3" cx="506.68" cy="251.26" r="3.12"/><circle class="cls-3" cx="506.68" cy="258.63" r="3.12"/><circle class="cls-3" cx="499.31" cy="251.26" r="3.12"/><circle class="cls-3" cx="499.31" cy="258.63" r="3.12"/><circle class="cls-3" cx="514.05" cy="144.03" r="3.12"/><circle class="cls-3" cx="514.05" cy="151.4" r="3.12"/><circle class="cls-3" cx="506.68" cy="144.03" r="3.12"/><circle class="cls-3" cx="506.68" cy="151.4" r="3.12"/><circle class="cls-3" cx="499.31" cy="144.03" r="3.12"/><circle class="cls-3" cx="499.31" cy="151.4" r="3.12"/><circle class="cls-3" cx="514.05" cy="126.16" r="3.12"/><circle class="cls-3" cx="514.05" cy="133.53" r="3.12"/><circle class="cls-3" cx="506.68" cy="126.16" r="3.12"/><circle class="cls-3" cx="506.68" cy="133.53" r="3.12"/><circle class="cls-3" cx="499.31" cy="126.16" r="3.12"/><circle class="cls-3" cx="499.31" cy="133.53" r="3.12"/><circle class="cls-3" cx="514.05" cy="233.39" r="3.12"/><circle class="cls-3" cx="514.05" cy="240.76" r="3.12"/><circle class="cls-3" cx="506.68" cy="233.39" r="3.12"/><circle class="cls-3" cx="506.68" cy="240.76" r="3.12"/><circle class="cls-3" cx="499.31" cy="233.39" r="3.12"/><circle class="cls-3" cx="499.31" cy="240.76" r="3.12"/><circle class="cls-3" cx="514.05" cy="179.77" r="3.12"/><circle class="cls-3" cx="514.05" cy="187.14" r="3.12"/><circle class="cls-3" cx="506.68" cy="179.77" r="3.12"/><circle class="cls-3" cx="506.68" cy="187.14" r="3.12"/><circle class="cls-3" cx="499.31" cy="179.77" r="3.12"/><circle class="cls-3" cx="499.31" cy="187.14" r="3.12"/><circle class="cls-3" cx="514.05" cy="304.87" r="3.12"/><circle class="cls-3" cx="514.05" cy="312.24" r="3.12"/><circle class="cls-3" cx="506.68" cy="304.87" r="3.12"/><circle class="cls-3" cx="506.68" cy="312.24" r="3.12"/><circle class="cls-3" cx="499.31" cy="304.87" r="3.12"/><circle class="cls-3" cx="499.31" cy="312.24" r="3.12"/><circle class="cls-3" cx="514.05" cy="161.9" r="3.12"/><circle class="cls-3" cx="514.05" cy="169.27" r="3.12"/><circle class="cls-3" cx="506.68" cy="161.9" r="3.12"/><circle class="cls-3" cx="506.68" cy="169.27" r="3.12"/><circle class="cls-3" cx="499.31" cy="161.9" r="3.12"/><circle class="cls-3" cx="499.31" cy="169.27" r="3.12"/><circle class="cls-3" cx="514.05" cy="108.29" r="3.12"/><circle class="cls-3" cx="514.05" cy="115.66" r="3.12"/><circle class="cls-3" cx="506.68" cy="108.29" r="3.12"/><circle class="cls-3" cx="506.68" cy="115.66" r="3.12"/><circle class="cls-3" cx="499.31" cy="108.29" r="3.12"/><circle class="cls-3" cx="499.31" cy="115.66" r="3.12"/><circle class="cls-3" cx="514.05" cy="197.64" r="3.12"/><circle class="cls-3" cx="514.05" cy="205.01" r="3.12"/><circle class="cls-3" cx="506.68" cy="197.64" r="3.12"/><circle class="cls-3" cx="506.68" cy="205.01" r="3.12"/><circle class="cls-3" cx="499.31" cy="197.64" r="3.12"/><circle class="cls-3" cx="499.31" cy="205.01" r="3.12"/><circle class="cls-3" cx="514.05" cy="287" r="3.12"/><circle class="cls-3" cx="514.05" cy="294.37" r="3.12"/><circle class="cls-3" cx="506.68" cy="287" r="3.12"/><circle class="cls-3" cx="506.68" cy="294.37" r="3.12"/><circle class="cls-3" cx="499.31" cy="287" r="3.12"/><circle class="cls-3" cx="499.31" cy="294.37" r="3.12"/><circle class="cls-3" cx="514.05" cy="269.13" r="3.12"/><circle class="cls-3" cx="514.05" cy="276.5" r="3.12"/><circle class="cls-3" cx="506.68" cy="269.13" r="3.12"/><circle class="cls-3" cx="506.68" cy="276.5" r="3.12"/><circle class="cls-3" cx="499.31" cy="269.13" r="3.12"/><circle class="cls-3" cx="499.31" cy="276.5" r="3.12"/><path class="cls-3" d="M699.55,301V102.55a5.67,5.67,0,0,0-5.67-5.67H577.66a5.67,5.67,0,0,0-5.67,5.67V318a5.67,5.67,0,0,0,5.67,5.67h99.22A22.68,22.68,0,0,1,699.55,301Z"/><circle class="cls-3" cx="606.58" cy="215.51" r="3.12"/><circle class="cls-3" cx="606.58" cy="222.88" r="3.12"/><circle class="cls-3" cx="599.21" cy="215.51" r="3.12"/><circle class="cls-3" cx="599.21" cy="222.88" r="3.12"/><circle class="cls-3" cx="591.84" cy="215.51" r="3.12"/><circle class="cls-3" cx="591.84" cy="222.88" r="3.12"/><circle class="cls-3" cx="606.58" cy="251.26" r="3.12"/><circle class="cls-3" cx="606.58" cy="258.63" r="3.12"/><circle class="cls-3" cx="599.21" cy="251.26" r="3.12"/><circle class="cls-3" cx="599.21" cy="258.63" r="3.12"/><circle class="cls-3" cx="591.84" cy="251.26" r="3.12"/><circle class="cls-3" cx="591.84" cy="258.63" r="3.12"/><circle class="cls-3" cx="606.58" cy="144.03" r="3.12"/><circle class="cls-3" cx="606.58" cy="151.4" r="3.12"/><circle class="cls-3" cx="599.21" cy="144.03" r="3.12"/><circle class="cls-3" cx="599.21" cy="151.4" r="3.12"/><circle class="cls-3" cx="591.84" cy="144.03" r="3.12"/><circle class="cls-3" cx="591.84" cy="151.4" r="3.12"/><circle class="cls-3" cx="606.58" cy="126.16" r="3.12"/><circle class="cls-3" cx="606.58" cy="133.53" r="3.12"/><circle class="cls-3" cx="599.21" cy="126.16" r="3.12"/><circle class="cls-3" cx="599.21" cy="133.53" r="3.12"/><circle class="cls-3" cx="591.84" cy="126.16" r="3.12"/><circle class="cls-3" cx="591.84" cy="133.53" r="3.12"/><circle class="cls-3" cx="606.58" cy="233.39" r="3.12"/><circle class="cls-3" cx="606.58" cy="240.76" r="3.12"/><circle class="cls-3" cx="599.21" cy="233.39" r="3.12"/><circle class="cls-3" cx="599.21" cy="240.76" r="3.12"/><circle class="cls-3" cx="591.84" cy="233.39" r="3.12"/><circle class="cls-3" cx="591.84" cy="240.76" r="3.12"/><circle class="cls-3" cx="606.58" cy="179.77" r="3.12"/><circle class="cls-3" cx="606.58" cy="187.14" r="3.12"/><circle class="cls-3" cx="599.21" cy="179.77" r="3.12"/><circle class="cls-3" cx="599.21" cy="187.14" r="3.12"/><circle class="cls-3" cx="591.84" cy="179.77" r="3.12"/><circle class="cls-3" cx="591.84" cy="187.14" r="3.12"/><circle class="cls-3" cx="606.58" cy="304.87" r="3.12"/><circle class="cls-3" cx="606.58" cy="312.24" r="3.12"/><circle class="cls-3" cx="599.21" cy="304.87" r="3.12"/><circle class="cls-3" cx="599.21" cy="312.24" r="3.12"/><circle class="cls-3" cx="591.84" cy="304.87" r="3.12"/><circle class="cls-3" cx="591.84" cy="312.24" r="3.12"/><circle class="cls-3" cx="606.58" cy="161.9" r="3.12"/><circle class="cls-3" cx="606.58" cy="169.27" r="3.12"/><circle class="cls-3" cx="599.21" cy="161.9" r="3.12"/><circle class="cls-3" cx="599.21" cy="169.27" r="3.12"/><circle class="cls-3" cx="591.84" cy="161.9" r="3.12"/><circle class="cls-3" cx="591.84" cy="169.27" r="3.12"/><circle class="cls-3" cx="606.58" cy="108.29" r="3.12"/><circle class="cls-3" cx="606.58" cy="115.66" r="3.12"/><circle class="cls-3" cx="599.21" cy="115.66" r="3.12"/><circle class="cls-3" cx="591.84" cy="115.66" r="3.12"/><circle class="cls-3" cx="606.58" cy="197.64" r="3.12"/><circle class="cls-3" cx="606.58" cy="205.01" r="3.12"/><circle class="cls-3" cx="599.21" cy="197.64" r="3.12"/><circle class="cls-3" cx="599.21" cy="205.01" r="3.12"/><circle class="cls-3" cx="591.84" cy="197.64" r="3.12"/><circle class="cls-3" cx="591.84" cy="205.01" r="3.12"/><circle class="cls-3" cx="606.58" cy="287" r="3.12"/><circle class="cls-3" cx="606.58" cy="294.37" r="3.12"/><circle class="cls-3" cx="599.21" cy="287" r="3.12"/><circle class="cls-3" cx="599.21" cy="294.37" r="3.12"/><circle class="cls-3" cx="591.84" cy="287" r="3.12"/><circle class="cls-3" cx="591.84" cy="294.37" r="3.12"/><circle class="cls-3" cx="606.58" cy="269.13" r="3.12"/><circle class="cls-3" cx="606.58" cy="276.5" r="3.12"/><circle class="cls-3" cx="599.21" cy="269.13" r="3.12"/><circle class="cls-3" cx="599.21" cy="276.5" r="3.12"/><circle class="cls-3" cx="591.84" cy="269.13" r="3.12"/><circle class="cls-3" cx="591.84" cy="276.5" r="3.12"/><circle class="cls-3" cx="637.69" cy="215.51" r="3.12"/><circle class="cls-3" cx="637.69" cy="222.88" r="3.12"/><circle class="cls-3" cx="630.32" cy="215.51" r="3.12"/><circle class="cls-3" cx="630.32" cy="222.88" r="3.12"/><circle class="cls-3" cx="622.95" cy="215.51" r="3.12"/><circle class="cls-3" cx="622.95" cy="222.88" r="3.12"/><circle class="cls-3" cx="637.69" cy="251.26" r="3.12"/><circle class="cls-3" cx="637.69" cy="258.63" r="3.12"/><circle class="cls-3" cx="630.32" cy="251.26" r="3.12"/><circle class="cls-3" cx="630.32" cy="258.63" r="3.12"/><circle class="cls-3" cx="622.95" cy="251.26" r="3.12"/><circle class="cls-3" cx="622.95" cy="258.63" r="3.12"/><circle class="cls-3" cx="637.69" cy="144.03" r="3.12"/><circle class="cls-3" cx="637.69" cy="151.4" r="3.12"/><circle class="cls-3" cx="630.32" cy="144.03" r="3.12"/><circle class="cls-3" cx="630.32" cy="151.4" r="3.12"/><circle class="cls-3" cx="622.95" cy="144.03" r="3.12"/><circle class="cls-3" cx="622.95" cy="151.4" r="3.12"/><circle class="cls-3" cx="637.69" cy="126.16" r="3.12"/><circle class="cls-3" cx="637.69" cy="133.53" r="3.12"/><circle class="cls-3" cx="630.32" cy="126.16" r="3.12"/><circle class="cls-3" cx="630.32" cy="133.53" r="3.12"/><circle class="cls-3" cx="622.95" cy="126.16" r="3.12"/><circle class="cls-3" cx="622.95" cy="133.53" r="3.12"/><circle class="cls-3" cx="637.69" cy="233.39" r="3.12"/><circle class="cls-3" cx="637.69" cy="240.76" r="3.12"/><circle class="cls-3" cx="630.32" cy="233.39" r="3.12"/><circle class="cls-3" cx="630.32" cy="240.76" r="3.12"/><circle class="cls-3" cx="622.95" cy="233.39" r="3.12"/><circle class="cls-3" cx="622.95" cy="240.76" r="3.12"/><circle class="cls-3" cx="637.69" cy="179.77" r="3.12"/><circle class="cls-3" cx="637.69" cy="187.14" r="3.12"/><circle class="cls-3" cx="630.32" cy="179.77" r="3.12"/><circle class="cls-3" cx="630.32" cy="187.14" r="3.12"/><circle class="cls-3" cx="622.95" cy="179.77" r="3.12"/><circle class="cls-3" cx="622.95" cy="187.14" r="3.12"/><circle class="cls-3" cx="637.69" cy="304.87" r="3.12"/><circle class="cls-3" cx="637.69" cy="312.24" r="3.12"/><circle class="cls-3" cx="630.32" cy="304.87" r="3.12"/><circle class="cls-3" cx="630.32" cy="312.24" r="3.12"/><circle class="cls-3" cx="622.95" cy="304.87" r="3.12"/><circle class="cls-3" cx="622.95" cy="312.24" r="3.12"/><circle class="cls-3" cx="637.69" cy="161.9" r="3.12"/><circle class="cls-3" cx="637.69" cy="169.27" r="3.12"/><circle class="cls-3" cx="630.32" cy="161.9" r="3.12"/><circle class="cls-3" cx="630.32" cy="169.27" r="3.12"/><circle class="cls-3" cx="622.95" cy="161.9" r="3.12"/><circle class="cls-3" cx="622.95" cy="169.27" r="3.12"/><circle class="cls-3" cx="637.69" cy="108.29" r="3.12"/><circle class="cls-3" cx="637.69" cy="115.66" r="3.12"/><circle class="cls-3" cx="630.32" cy="108.29" r="3.12"/><circle class="cls-3" cx="630.32" cy="115.66" r="3.12"/><circle class="cls-3" cx="622.95" cy="108.29" r="3.12"/><circle class="cls-3" cx="622.95" cy="115.66" r="3.12"/><circle class="cls-3" cx="637.69" cy="197.64" r="3.12"/><circle class="cls-3" cx="637.69" cy="205.01" r="3.12"/><circle class="cls-3" cx="630.32" cy="197.64" r="3.12"/><circle class="cls-3" cx="630.32" cy="205.01" r="3.12"/><circle class="cls-3" cx="622.95" cy="197.64" r="3.12"/><circle class="cls-3" cx="622.95" cy="205.01" r="3.12"/><circle class="cls-3" cx="637.69" cy="287" r="3.12"/><circle class="cls-3" cx="637.69" cy="294.37" r="3.12"/><circle class="cls-3" cx="630.32" cy="287" r="3.12"/><circle class="cls-3" cx="630.32" cy="294.37" r="3.12"/><circle class="cls-3" cx="622.95" cy="287" r="3.12"/><circle class="cls-3" cx="622.95" cy="294.37" r="3.12"/><circle class="cls-3" cx="637.69" cy="269.13" r="3.12"/><circle class="cls-3" cx="637.69" cy="276.5" r="3.12"/><circle class="cls-3" cx="630.32" cy="269.13" r="3.12"/><circle class="cls-3" cx="630.32" cy="276.5" r="3.12"/><circle class="cls-3" cx="622.95" cy="269.13" r="3.12"/><circle class="cls-3" cx="622.95" cy="276.5" r="3.12"/><circle class="cls-3" cx="668.81" cy="215.51" r="3.12"/><circle class="cls-3" cx="668.81" cy="222.88" r="3.12"/><circle class="cls-3" cx="661.44" cy="215.51" r="3.12"/><circle class="cls-3" cx="661.44" cy="222.88" r="3.12"/><circle class="cls-3" cx="654.07" cy="215.51" r="3.12"/><circle class="cls-3" cx="654.07" cy="222.88" r="3.12"/><circle class="cls-3" cx="668.81" cy="251.26" r="3.12"/><circle class="cls-3" cx="668.81" cy="258.63" r="3.12"/><circle class="cls-3" cx="661.44" cy="251.26" r="3.12"/><circle class="cls-3" cx="661.44" cy="258.63" r="3.12"/><circle class="cls-3" cx="654.07" cy="251.26" r="3.12"/><circle class="cls-3" cx="654.07" cy="258.63" r="3.12"/><circle class="cls-3" cx="668.81" cy="144.03" r="3.12"/><circle class="cls-3" cx="668.81" cy="151.4" r="3.12"/><circle class="cls-3" cx="661.44" cy="144.03" r="3.12"/><circle class="cls-3" cx="661.44" cy="151.4" r="3.12"/><circle class="cls-3" cx="654.07" cy="144.03" r="3.12"/><circle class="cls-3" cx="654.07" cy="151.4" r="3.12"/><circle class="cls-3" cx="668.81" cy="126.16" r="3.12"/><circle class="cls-3" cx="668.81" cy="133.53" r="3.12"/><circle class="cls-3" cx="661.44" cy="126.16" r="3.12"/><circle class="cls-3" cx="661.44" cy="133.53" r="3.12"/><circle class="cls-3" cx="654.07" cy="126.16" r="3.12"/><circle class="cls-3" cx="654.07" cy="133.53" r="3.12"/><circle class="cls-3" cx="668.81" cy="233.39" r="3.12"/><circle class="cls-3" cx="668.81" cy="240.76" r="3.12"/><circle class="cls-3" cx="661.44" cy="233.39" r="3.12"/><circle class="cls-3" cx="661.44" cy="240.76" r="3.12"/><circle class="cls-3" cx="654.07" cy="233.39" r="3.12"/><circle class="cls-3" cx="654.07" cy="240.76" r="3.12"/><circle class="cls-3" cx="668.81" cy="179.77" r="3.12"/><circle class="cls-3" cx="668.81" cy="187.14" r="3.12"/><circle class="cls-3" cx="661.44" cy="179.77" r="3.12"/><circle class="cls-3" cx="661.44" cy="187.14" r="3.12"/><circle class="cls-3" cx="654.07" cy="179.77" r="3.12"/><circle class="cls-3" cx="654.07" cy="187.14" r="3.12"/><circle class="cls-3" cx="668.81" cy="304.87" r="3.12"/><circle class="cls-3" cx="668.81" cy="312.24" r="3.12"/><circle class="cls-3" cx="661.44" cy="304.87" r="3.12"/><circle class="cls-3" cx="661.44" cy="312.24" r="3.12"/><circle class="cls-3" cx="654.07" cy="304.87" r="3.12"/><circle class="cls-3" cx="654.07" cy="312.24" r="3.12"/><circle class="cls-3" cx="668.81" cy="161.9" r="3.12"/><circle class="cls-3" cx="668.81" cy="169.27" r="3.12"/><circle class="cls-3" cx="661.44" cy="161.9" r="3.12"/><circle class="cls-3" cx="661.44" cy="169.27" r="3.12"/><circle class="cls-3" cx="654.07" cy="161.9" r="3.12"/><circle class="cls-3" cx="654.07" cy="169.27" r="3.12"/><circle class="cls-3" cx="668.81" cy="108.29" r="3.12"/><circle class="cls-3" cx="668.81" cy="115.66" r="3.12"/><circle class="cls-3" cx="661.44" cy="108.29" r="3.12"/><circle class="cls-3" cx="661.44" cy="115.66" r="3.12"/><circle class="cls-3" cx="654.07" cy="108.29" r="3.12"/><circle class="cls-3" cx="654.07" cy="115.66" r="3.12"/><circle class="cls-3" cx="668.81" cy="197.64" r="3.12"/><circle class="cls-3" cx="668.81" cy="205.01" r="3.12"/><circle class="cls-3" cx="661.44" cy="197.64" r="3.12"/><circle class="cls-3" cx="661.44" cy="205.01" r="3.12"/><circle class="cls-3" cx="654.07" cy="197.64" r="3.12"/><circle class="cls-3" cx="654.07" cy="205.01" r="3.12"/><circle class="cls-3" cx="668.81" cy="287" r="3.12"/><circle class="cls-3" cx="668.81" cy="294.37" r="3.12"/><circle class="cls-3" cx="661.44" cy="287" r="3.12"/><circle class="cls-3" cx="661.44" cy="294.37" r="3.12"/><circle class="cls-3" cx="654.07" cy="287" r="3.12"/><circle class="cls-3" cx="654.07" cy="294.37" r="3.12"/><circle class="cls-3" cx="668.81" cy="269.13" r="3.12"/><circle class="cls-3" cx="668.81" cy="276.5" r="3.12"/><circle class="cls-3" cx="661.44" cy="269.13" r="3.12"/><circle class="cls-3" cx="661.44" cy="276.5" r="3.12"/><circle class="cls-3" cx="654.07" cy="269.13" r="3.12"/><circle class="cls-3" cx="654.07" cy="276.5" r="3.12"/><rect class="cls-3" x="234.38" y="54.36" width="155.91" height="269.29" rx="6.83"/><circle class="cls-3" cx="282.18" cy="195.19" r="3.12"/><circle class="cls-3" cx="282.18" cy="202.56" r="3.12"/><circle class="cls-3" cx="274.81" cy="195.19" r="3.12"/><circle class="cls-3" cx="274.81" cy="202.56" r="3.12"/><circle class="cls-3" cx="267.44" cy="195.19" r="3.12"/><circle class="cls-3" cx="267.44" cy="202.56" r="3.12"/><circle class="cls-3" cx="282.18" cy="230.93" r="3.12"/><circle class="cls-3" cx="282.18" cy="238.3" r="3.12"/><circle class="cls-3" cx="274.81" cy="230.93" r="3.12"/><circle class="cls-3" cx="274.81" cy="238.3" r="3.12"/><circle class="cls-3" cx="267.44" cy="230.93" r="3.12"/><circle class="cls-3" cx="267.44" cy="238.3" r="3.12"/><circle class="cls-3" cx="282.18" cy="123.71" r="3.12"/><circle class="cls-3" cx="282.18" cy="131.08" r="3.12"/><circle class="cls-3" cx="274.81" cy="123.71" r="3.12"/><circle class="cls-3" cx="274.81" cy="131.08" r="3.12"/><circle class="cls-3" cx="267.44" cy="123.71" r="3.12"/><circle class="cls-3" cx="267.44" cy="131.08" r="3.12"/><circle class="cls-3" cx="282.18" cy="105.83" r="3.12"/><circle class="cls-3" cx="282.18" cy="113.2" r="3.12"/><circle class="cls-3" cx="274.81" cy="105.83" r="3.12"/><circle class="cls-3" cx="274.81" cy="113.2" r="3.12"/><circle class="cls-3" cx="267.44" cy="105.83" r="3.12"/><circle class="cls-3" cx="267.44" cy="113.2" r="3.12"/><circle class="cls-3" cx="282.18" cy="213.06" r="3.12"/><circle class="cls-3" cx="282.18" cy="220.43" r="3.12"/><circle class="cls-3" cx="274.81" cy="213.06" r="3.12"/><circle class="cls-3" cx="274.81" cy="220.43" r="3.12"/><circle class="cls-3" cx="267.44" cy="213.06" r="3.12"/><circle class="cls-3" cx="267.44" cy="220.43" r="3.12"/><circle class="cls-3" cx="282.18" cy="159.45" r="3.12"/><circle class="cls-3" cx="282.18" cy="166.82" r="3.12"/><circle class="cls-3" cx="274.81" cy="159.45" r="3.12"/><circle class="cls-3" cx="274.81" cy="166.82" r="3.12"/><circle class="cls-3" cx="267.44" cy="159.45" r="3.12"/><circle class="cls-3" cx="267.44" cy="166.82" r="3.12"/><circle class="cls-3" cx="282.18" cy="284.55" r="3.12"/><circle class="cls-3" cx="282.18" cy="291.92" r="3.12"/><circle class="cls-3" cx="274.81" cy="284.55" r="3.12"/><circle class="cls-3" cx="274.81" cy="291.92" r="3.12"/><circle class="cls-3" cx="267.44" cy="284.55" r="3.12"/><circle class="cls-3" cx="267.44" cy="291.92" r="3.12"/><circle class="cls-3" cx="282.18" cy="141.58" r="3.12"/><circle class="cls-3" cx="282.18" cy="148.95" r="3.12"/><circle class="cls-3" cx="274.81" cy="141.58" r="3.12"/><circle class="cls-3" cx="274.81" cy="148.95" r="3.12"/><circle class="cls-3" cx="267.44" cy="141.58" r="3.12"/><circle class="cls-3" cx="267.44" cy="148.95" r="3.12"/><circle class="cls-3" cx="282.18" cy="87.96" r="3.12"/><circle class="cls-3" cx="282.18" cy="95.33" r="3.12"/><circle class="cls-3" cx="274.81" cy="87.96" r="3.12"/><circle class="cls-3" cx="274.81" cy="95.33" r="3.12"/><circle class="cls-3" cx="267.44" cy="87.96" r="3.12"/><circle class="cls-3" cx="267.44" cy="95.33" r="3.12"/><circle class="cls-3" cx="282.18" cy="177.32" r="3.12"/><circle class="cls-3" cx="282.18" cy="184.69" r="3.12"/><circle class="cls-3" cx="274.81" cy="177.32" r="3.12"/><circle class="cls-3" cx="274.81" cy="184.69" r="3.12"/><circle class="cls-3" cx="267.44" cy="177.32" r="3.12"/><circle class="cls-3" cx="267.44" cy="184.69" r="3.12"/><circle class="cls-3" cx="282.18" cy="266.68" r="3.12"/><circle class="cls-3" cx="282.18" cy="274.05" r="3.12"/><circle class="cls-3" cx="274.81" cy="266.68" r="3.12"/><circle class="cls-3" cx="274.81" cy="274.05" r="3.12"/><circle class="cls-3" cx="267.44" cy="266.68" r="3.12"/><circle class="cls-3" cx="267.44" cy="274.05" r="3.12"/><circle class="cls-3" cx="282.18" cy="248.81" r="3.12"/><circle class="cls-3" cx="282.18" cy="256.18" r="3.12"/><circle class="cls-3" cx="274.81" cy="248.81" r="3.12"/><circle class="cls-3" cx="274.81" cy="256.18" r="3.12"/><circle class="cls-3" cx="267.44" cy="248.81" r="3.12"/><circle class="cls-3" cx="267.44" cy="256.18" r="3.12"/><circle class="cls-3" cx="313.29" cy="195.19" r="3.12"/><circle class="cls-3" cx="313.29" cy="202.56" r="3.12"/><circle class="cls-3" cx="305.92" cy="195.19" r="3.12"/><circle class="cls-3" cx="305.92" cy="202.56" r="3.12"/><circle class="cls-3" cx="298.55" cy="195.19" r="3.12"/><circle class="cls-3" cx="298.55" cy="202.56" r="3.12"/><circle class="cls-3" cx="313.29" cy="230.93" r="3.12"/><circle class="cls-3" cx="313.29" cy="238.3" r="3.12"/><circle class="cls-3" cx="305.92" cy="230.93" r="3.12"/><circle class="cls-3" cx="305.92" cy="238.3" r="3.12"/><circle class="cls-3" cx="298.55" cy="230.93" r="3.12"/><circle class="cls-3" cx="298.55" cy="238.3" r="3.12"/><circle class="cls-3" cx="313.29" cy="123.71" r="3.12"/><circle class="cls-3" cx="313.29" cy="131.08" r="3.12"/><circle class="cls-3" cx="305.92" cy="123.71" r="3.12"/><circle class="cls-3" cx="305.92" cy="131.08" r="3.12"/><circle class="cls-3" cx="298.55" cy="123.71" r="3.12"/><circle class="cls-3" cx="298.55" cy="131.08" r="3.12"/><circle class="cls-3" cx="313.29" cy="105.83" r="3.12"/><circle class="cls-3" cx="313.29" cy="113.2" r="3.12"/><circle class="cls-3" cx="305.92" cy="105.83" r="3.12"/><circle class="cls-3" cx="305.92" cy="113.2" r="3.12"/><circle class="cls-3" cx="298.55" cy="105.83" r="3.12"/><circle class="cls-3" cx="298.55" cy="113.2" r="3.12"/><circle class="cls-3" cx="313.29" cy="213.06" r="3.12"/><circle class="cls-3" cx="313.29" cy="220.43" r="3.12"/><circle class="cls-3" cx="305.92" cy="213.06" r="3.12"/><circle class="cls-3" cx="305.92" cy="220.43" r="3.12"/><circle class="cls-3" cx="298.55" cy="213.06" r="3.12"/><circle class="cls-3" cx="298.55" cy="220.43" r="3.12"/><circle class="cls-3" cx="313.29" cy="159.45" r="3.12"/><circle class="cls-3" cx="313.29" cy="166.82" r="3.12"/><circle class="cls-3" cx="305.92" cy="159.45" r="3.12"/><circle class="cls-3" cx="305.92" cy="166.82" r="3.12"/><circle class="cls-3" cx="298.55" cy="159.45" r="3.12"/><circle class="cls-3" cx="298.55" cy="166.82" r="3.12"/><circle class="cls-3" cx="313.29" cy="284.55" r="3.12"/><circle class="cls-3" cx="313.29" cy="291.92" r="3.12"/><circle class="cls-3" cx="305.92" cy="284.55" r="3.12"/><circle class="cls-3" cx="305.92" cy="291.92" r="3.12"/><circle class="cls-3" cx="298.55" cy="284.55" r="3.12"/><circle class="cls-3" cx="298.55" cy="291.92" r="3.12"/><circle class="cls-3" cx="313.29" cy="141.58" r="3.12"/><circle class="cls-3" cx="313.29" cy="148.95" r="3.12"/><circle class="cls-3" cx="305.92" cy="141.58" r="3.12"/><circle class="cls-3" cx="305.92" cy="148.95" r="3.12"/><circle class="cls-3" cx="298.55" cy="141.58" r="3.12"/><circle class="cls-3" cx="298.55" cy="148.95" r="3.12"/><circle class="cls-3" cx="313.29" cy="87.96" r="3.12"/><circle class="cls-3" cx="313.29" cy="95.33" r="3.12"/><circle class="cls-3" cx="305.92" cy="87.96" r="3.12"/><circle class="cls-3" cx="305.92" cy="95.33" r="3.12"/><circle class="cls-3" cx="298.55" cy="87.96" r="3.12"/><circle class="cls-3" cx="298.55" cy="95.33" r="3.12"/><circle class="cls-3" cx="313.29" cy="177.32" r="3.12"/><circle class="cls-3" cx="313.29" cy="184.69" r="3.12"/><circle class="cls-3" cx="305.92" cy="177.32" r="3.12"/><circle class="cls-3" cx="305.92" cy="184.69" r="3.12"/><circle class="cls-3" cx="298.55" cy="177.32" r="3.12"/><circle class="cls-3" cx="298.55" cy="184.69" r="3.12"/><circle class="cls-3" cx="313.29" cy="266.68" r="3.12"/><circle class="cls-3" cx="313.29" cy="274.05" r="3.12"/><circle class="cls-3" cx="305.92" cy="266.68" r="3.12"/><circle class="cls-3" cx="305.92" cy="274.05" r="3.12"/><circle class="cls-3" cx="298.55" cy="266.68" r="3.12"/><circle class="cls-3" cx="298.55" cy="274.05" r="3.12"/><circle class="cls-3" cx="313.29" cy="248.81" r="3.12"/><circle class="cls-3" cx="313.29" cy="256.18" r="3.12"/><circle class="cls-3" cx="305.92" cy="248.81" r="3.12"/><circle class="cls-3" cx="305.92" cy="256.18" r="3.12"/><circle class="cls-3" cx="298.55" cy="248.81" r="3.12"/><circle class="cls-3" cx="298.55" cy="256.18" r="3.12"/><circle class="cls-3" cx="344.41" cy="195.19" r="3.12"/><circle class="cls-3" cx="344.41" cy="202.56" r="3.12"/><circle class="cls-3" cx="337.04" cy="195.19" r="3.12"/><circle class="cls-3" cx="337.04" cy="202.56" r="3.12"/><circle class="cls-3" cx="329.67" cy="195.19" r="3.12"/><circle class="cls-3" cx="329.67" cy="202.56" r="3.12"/><circle class="cls-3" cx="344.41" cy="230.93" r="3.12"/><circle class="cls-3" cx="344.41" cy="238.3" r="3.12"/><circle class="cls-3" cx="337.04" cy="230.93" r="3.12"/><circle class="cls-3" cx="337.04" cy="238.3" r="3.12"/><circle class="cls-3" cx="329.67" cy="230.93" r="3.12"/><circle class="cls-3" cx="329.67" cy="238.3" r="3.12"/><circle class="cls-3" cx="344.41" cy="123.71" r="3.12"/><circle class="cls-3" cx="344.41" cy="131.08" r="3.12"/><circle class="cls-3" cx="337.04" cy="123.71" r="3.12"/><circle class="cls-3" cx="337.04" cy="131.08" r="3.12"/><circle class="cls-3" cx="329.67" cy="123.71" r="3.12"/><circle class="cls-3" cx="329.67" cy="131.08" r="3.12"/><circle class="cls-3" cx="344.41" cy="105.83" r="3.12"/><circle class="cls-3" cx="344.41" cy="113.2" r="3.12"/><circle class="cls-3" cx="337.04" cy="105.83" r="3.12"/><circle class="cls-3" cx="337.04" cy="113.2" r="3.12"/><circle class="cls-3" cx="329.67" cy="105.83" r="3.12"/><circle class="cls-3" cx="329.67" cy="113.2" r="3.12"/><circle class="cls-3" cx="344.41" cy="213.06" r="3.12"/><circle class="cls-3" cx="344.41" cy="220.43" r="3.12"/><circle class="cls-3" cx="337.04" cy="213.06" r="3.12"/><circle class="cls-3" cx="337.04" cy="220.43" r="3.12"/><circle class="cls-3" cx="329.67" cy="213.06" r="3.12"/><circle class="cls-3" cx="329.67" cy="220.43" r="3.12"/><circle class="cls-3" cx="344.41" cy="159.45" r="3.12"/><circle class="cls-3" cx="344.41" cy="166.82" r="3.12"/><circle class="cls-3" cx="337.04" cy="159.45" r="3.12"/><circle class="cls-3" cx="337.04" cy="166.82" r="3.12"/><circle class="cls-3" cx="329.67" cy="159.45" r="3.12"/><circle class="cls-3" cx="329.67" cy="166.82" r="3.12"/><circle class="cls-3" cx="344.41" cy="284.55" r="3.12"/><circle class="cls-3" cx="344.41" cy="291.92" r="3.12"/><circle class="cls-3" cx="337.04" cy="284.55" r="3.12"/><circle class="cls-3" cx="337.04" cy="291.92" r="3.12"/><circle class="cls-3" cx="329.67" cy="284.55" r="3.12"/><circle class="cls-3" cx="329.67" cy="291.92" r="3.12"/><circle class="cls-3" cx="344.41" cy="141.58" r="3.12"/><circle class="cls-3" cx="344.41" cy="148.95" r="3.12"/><circle class="cls-3" cx="337.04" cy="141.58" r="3.12"/><circle class="cls-3" cx="337.04" cy="148.95" r="3.12"/><circle class="cls-3" cx="329.67" cy="141.58" r="3.12"/><circle class="cls-3" cx="329.67" cy="148.95" r="3.12"/><circle class="cls-3" cx="344.41" cy="87.96" r="3.12"/><circle class="cls-3" cx="344.41" cy="95.33" r="3.12"/><circle class="cls-3" cx="337.04" cy="87.96" r="3.12"/><circle class="cls-3" cx="337.04" cy="95.33" r="3.12"/><circle class="cls-3" cx="329.67" cy="87.96" r="3.12"/><circle class="cls-3" cx="329.67" cy="95.33" r="3.12"/><circle class="cls-3" cx="344.41" cy="177.32" r="3.12"/><circle class="cls-3" cx="344.41" cy="184.69" r="3.12"/><circle class="cls-3" cx="337.04" cy="177.32" r="3.12"/><circle class="cls-3" cx="337.04" cy="184.69" r="3.12"/><circle class="cls-3" cx="329.67" cy="177.32" r="3.12"/><circle class="cls-3" cx="329.67" cy="184.69" r="3.12"/><circle class="cls-3" cx="344.41" cy="266.68" r="3.12"/><circle class="cls-3" cx="344.41" cy="274.05" r="3.12"/><circle class="cls-3" cx="337.04" cy="266.68" r="3.12"/><circle class="cls-3" cx="337.04" cy="274.05" r="3.12"/><circle class="cls-3" cx="329.67" cy="266.68" r="3.12"/><circle class="cls-3" cx="329.67" cy="274.05" r="3.12"/><circle class="cls-3" cx="344.41" cy="248.81" r="3.12"/><circle class="cls-3" cx="344.41" cy="256.18" r="3.12"/><circle class="cls-3" cx="337.04" cy="248.81" r="3.12"/><circle class="cls-3" cx="337.04" cy="256.18" r="3.12"/><circle class="cls-3" cx="329.67" cy="248.81" r="3.12"/><circle class="cls-3" cx="329.67" cy="256.18" r="3.12"/><rect x="726.75" y="300.97" width="5.67" height="22.68" rx="2.83"/></g></g></svg>